<?xml version="1.0" standalone="no"?>
<!DOCTYPE svg PUBLIC "-//W3C//DTD SVG 20010904//EN"
 "http://www.w3.org/TR/2001/REC-SVG-20010904/DTD/svg10.dtd">
<svg version="1.0" xmlns="http://www.w3.org/2000/svg"
 width="512.000000pt" height="512.000000pt" viewBox="0 0 512.000000 512.000000"
 preserveAspectRatio="xMidYMid meet">
<metadata>
Created by potrace 1.14, written by Peter Selinger 2001-2017
</metadata>
<g transform="translate(0.000000,512.000000) scale(0.100000,-0.100000)"
fill="#000000" stroke="none">
<path d="M0 2560 l0 -2560 2560 0 2560 0 0 2560 0 2560 -2560 0 -2560 0 0
-2560z m2710 616 c73 -23 190 -87 246 -133 163 -135 255 -373 224 -579 -33
-219 -164 -401 -354 -495 -106 -52 -192 -69 -348 -69 l-128 0 0 250 0 250 98
0 c123 0 171 -19 201 -79 12 -22 21 -52 21 -67 0 -57 -52 -125 -104 -135 -11
-2 -21 -10 -24 -18 -4 -11 6 -12 49 -6 273 37 453 305 383 570 -38 148 -156
270 -305 316 -51 16 -92 19 -250 19 l-189 0 0 -270 0 -270 -100 0 -100 0 0
363 c0 200 3 367 8 371 4 4 144 6 312 4 255 -4 314 -7 360 -22z m-192 -561
c54 -63 11 -155 -73 -155 -36 0 -48 5 -69 31 -42 50 -33 113 22 144 37 21 92
12 120 -20z m-288 -465 l0 -251 -97 3 -98 3 -3 235 c-1 129 0 240 2 247 4 9
33 13 101 13 l95 0 0 -250z"/>
</g>
</svg>
