<svg width="28" height="32" viewBox="0 0 28 32" fill="none" xmlns="http://www.w3.org/2000/svg">
<path fill-rule="evenodd" clip-rule="evenodd" d="M0.214637 9.59872e-06V0.119403H0V18.3063H4.77032V4.80004H12.0987C18.2744 4.80004 23.2297 9.78601 23.2297 16C23.2297 22.1193 18.4242 27.0478 12.38 27.1965V26.7141C12.9193 26.6384 13.434 26.4412 13.8846 26.1376C14.3353 25.834 14.7099 25.4321 14.9798 24.9626C15.3127 24.383 15.4739 23.7218 15.4448 23.0553C15.4156 22.3887 15.1974 21.7439 14.8152 21.1951C14.5349 20.7932 14.1739 20.4533 13.7548 20.1967C13.3357 19.94 12.8676 19.7722 12.38 19.7038V19.6668H7.60973V32H12.0987H12.38V31.9964C21.005 31.8441 28 24.7134 28 16C28 7.49429 21.3346 0.496482 12.994 0.0259612V0H12.0987L0.214637 9.59872e-06ZM9.96103 13.4936C9.89993 13.495 9.83891 13.4988 9.77811 13.505C9.16234 13.567 8.59462 13.8674 8.19486 14.3427C7.7951 14.8181 7.5946 15.4311 7.63569 16.0524C7.67681 16.6737 7.95632 17.2546 8.41517 17.6725C8.87402 18.0903 9.4763 18.3123 10.0948 18.2916C10.7133 18.2709 11.2996 18.0092 11.7299 17.5616C12.1602 17.114 12.4007 16.5157 12.4007 15.893L12.3797 15.5749C12.3019 14.9892 12.0121 14.453 11.5658 14.069C11.1195 13.685 10.5481 13.4801 9.96103 13.4936ZM0 18.3063V31.9512H4.77032V18.3063H0Z" fill="#056BF1"/>
</svg>
